<?xml version="1.0" encoding="UTF-8"?>
<svg width="512px" height="512px" viewBox="0 0 512 512" version="1.1" xmlns="http://www.w3.org/2000/svg">
    <title>Gold Crown</title>
    <g stroke="none" stroke-width="1" fill="none" fill-rule="evenodd">
        <g fill="#FFD700" fill-rule="nonzero">
            <path d="M489.6,171.8 C480.8,171.8 473.6,178.9 473.6,187.8 C473.6,196.6 480.7,203.8 489.6,203.8 C498.4,203.8 505.6,196.7 505.6,187.8 C505.6,179 498.5,171.8 489.6,171.8 Z" />
            <path d="M22.4,171.8 C13.6,171.8 6.4,178.9 6.4,187.8 C6.4,196.6 13.5,203.8 22.4,203.8 C31.2,203.8 38.4,196.7 38.4,187.8 C38.4,179 31.3,171.8 22.4,171.8 Z" />
            <path d="M256,171.8 C247.2,171.8 240,178.9 240,187.8 C240,196.6 247.1,203.8 256,203.8 C264.8,203.8 272,196.7 272,187.8 C272,179 264.9,171.8 256,171.8 Z" />
            <path d="M256,0 C247.2,0 240,7.1 240,16 C240,24.8 247.1,32 256,32 C264.8,32 272,24.9 272,16 C272,7.2 264.9,0 256,0 Z" />
            <path d="M256,64 C247.2,64 240,71.1 240,80 C240,88.8 247.1,96 256,96 C264.8,96 272,88.9 272,80 C272,71.2 264.9,64 256,64 Z" />
            <path d="M256,128 C247.2,128 240,135.1 240,144 C240,152.8 247.1,160 256,160 C264.8,160 272,152.9 272,144 C272,135.2 264.9,128 256,128 Z" />
            <path d="M432,384 L80,384 L80,320 L112,224 L192,288 L256,192 L320,288 L400,224 L432,320 L432,384 Z" />
            <path d="M448,400 L64,400 C55.2,400 48,407.1 48,416 L48,480 C48,488.8 55.1,496 64,496 L448,496 C456.8,496 464,488.9 464,480 L464,416 C464,407.2 456.9,400 448,400 Z" />
        </g>
    </g>
</svg>
