<?xml version="1.0" encoding="UTF-8"?>
<svg width="150" height="400" viewBox="0 0 150 400" xmlns="http://www.w3.org/2000/svg">
  <defs>
    <linearGradient id="goldGradient" x1="0%" y1="0%" x2="100%" y2="100%">
      <stop offset="0%" style="stop-color:#FFD700;stop-opacity:1" />
      <stop offset="50%" style="stop-color:#FFA500;stop-opacity:1" />
      <stop offset="100%" style="stop-color:#B8860B;stop-opacity:1" />
    </linearGradient>
    <filter id="shadow" x="-20%" y="-20%" width="140%" height="140%">
      <feDropShadow dx="2" dy="2" stdDeviation="2" flood-color="#000" flood-opacity="0.3"/>
    </filter>
  </defs>
  
  <!-- Laurel Leaves -->
  <g transform="translate(75, 200) scale(1.2) rotate(180)">
    <!-- Main Stem -->
    <path d="M0,0 C0,120 0,150 0,170" stroke="#B8860B" stroke-width="2" fill="none" opacity="0.8"/>
    
    <!-- Leaves -->
    <g filter="url(#shadow)">
      <!-- Leaf 1 (Bottom) -->
      <path d="M0,10 C15,5 30,8 35,20 C30,32 15,35 0,30 Z" fill="url(#goldGradient)" transform="rotate(15)" opacity="0.9"/>
      <path d="M0,10 C-15,5 -30,8 -35,20 C-30,32 -15,35 0,30 Z" fill="url(#goldGradient)" transform="rotate(15)" opacity="0.9"/>
      
      <!-- Leaf 2 -->
      <path d="M0,30 C15,25 30,28 35,40 C30,52 15,55 0,50 Z" fill="url(#goldGradient)" transform="rotate(12)" opacity="0.9"/>
      <path d="M0,30 C-15,25 -30,28 -35,40 C-30,52 -15,55 0,50 Z" fill="url(#goldGradient)" transform="rotate(12)" opacity="0.9"/>
      
      <!-- Leaf 3 -->
      <path d="M0,50 C15,45 30,48 35,60 C30,72 15,75 0,70 Z" fill="url(#goldGradient)" transform="rotate(9)" opacity="0.9"/>
      <path d="M0,50 C-15,45 -30,48 -35,60 C-30,72 -15,75 0,70 Z" fill="url(#goldGradient)" transform="rotate(9)" opacity="0.9"/>
      
      <!-- Leaf 4 -->
      <path d="M0,70 C15,65 30,68 35,80 C30,92 15,95 0,90 Z" fill="url(#goldGradient)" transform="rotate(6)" opacity="0.9"/>
      <path d="M0,70 C-15,65 -30,68 -35,80 C-30,92 -15,95 0,90 Z" fill="url(#goldGradient)" transform="rotate(6)" opacity="0.9"/>
      
      <!-- Leaf 5 -->
      <path d="M0,90 C15,85 30,88 35,100 C30,112 15,115 0,110 Z" fill="url(#goldGradient)" transform="rotate(3)" opacity="0.9"/>
      <path d="M0,90 C-15,85 -30,88 -35,100 C-30,112 -15,115 0,110 Z" fill="url(#goldGradient)" transform="rotate(3)" opacity="0.9"/>
      
      <!-- Leaf 6 -->
      <path d="M0,110 C15,105 30,108 35,120 C30,132 15,135 0,130 Z" fill="url(#goldGradient)" transform="rotate(0)" opacity="0.9"/>
      <path d="M0,110 C-15,105 -30,108 -35,120 C-30,132 -15,135 0,130 Z" fill="url(#goldGradient)" transform="rotate(0)" opacity="0.9"/>
      
      <!-- Leaf 7 -->
      <path d="M0,130 C15,125 30,128 35,140 C30,152 15,155 0,150 Z" fill="url(#goldGradient)" transform="rotate(-3)" opacity="0.9"/>
      <path d="M0,130 C-15,125 -30,128 -35,140 C-30,152 -15,155 0,150 Z" fill="url(#goldGradient)" transform="rotate(-3)" opacity="0.9"/>
      
      <!-- Leaf 8 -->
      <path d="M0,150 C15,145 30,148 35,160 C30,172 15,175 0,170 Z" fill="url(#goldGradient)" transform="rotate(-6)" opacity="0.9"/>
      <path d="M0,150 C-15,145 -30,148 -35,160 C-30,172 -15,175 0,170 Z" fill="url(#goldGradient)" transform="rotate(-6)" opacity="0.9"/>
      
      <!-- Leaf 9 (Top) -->
      <path d="M0,170 C15,165 30,168 35,180 C30,192 15,195 0,190 Z" fill="url(#goldGradient)" transform="rotate(-9)" opacity="0.9"/>
      <path d="M0,170 C-15,165 -30,168 -35,180 C-30,192 -15,195 0,190 Z" fill="url(#goldGradient)" transform="rotate(-9)" opacity="0.9"/>
    </g>
    
    <!-- Highlight details on leaves -->
    <g opacity="0.6">
      <path d="M0,10 C5,8 10,10 12,15" stroke="#FFD700" stroke-width="1" fill="none" transform="rotate(15)"/>
      <path d="M0,30 C5,28 10,30 12,35" stroke="#FFD700" stroke-width="1" fill="none" transform="rotate(12)"/>
      <path d="M0,50 C5,48 10,50 12,55" stroke="#FFD700" stroke-width="1" fill="none" transform="rotate(9)"/>
      <path d="M0,70 C5,68 10,70 12,75" stroke="#FFD700" stroke-width="1" fill="none" transform="rotate(6)"/>
      <path d="M0,90 C5,88 10,90 12,95" stroke="#FFD700" stroke-width="1" fill="none" transform="rotate(3)"/>
      <path d="M0,110 C5,108 10,110 12,115" stroke="#FFD700" stroke-width="1" fill="none" transform="rotate(0)"/>
      <path d="M0,130 C5,128 10,130 12,135" stroke="#FFD700" stroke-width="1" fill="none" transform="rotate(-3)"/>
      <path d="M0,150 C5,148 10,150 12,155" stroke="#FFD700" stroke-width="1" fill="none" transform="rotate(-6)"/>
      <path d="M0,170 C5,168 10,170 12,175" stroke="#FFD700" stroke-width="1" fill="none" transform="rotate(-9)"/>
    </g>
  </g>
</svg>
