<?xml version="1.0" encoding="UTF-8"?>
<svg width="200" height="400" viewBox="0 0 200 400" xmlns="http://www.w3.org/2000/svg">
  <defs>
    <linearGradient id="goldGradient" x1="0%" y1="0%" x2="100%" y2="100%">
      <stop offset="0%" style="stop-color:#FFD700;stop-opacity:1" />
      <stop offset="50%" style="stop-color:#FFA500;stop-opacity:1" />
      <stop offset="100%" style="stop-color:#B8860B;stop-opacity:1" />
    </linearGradient>
    <filter id="shadow" x="-20%" y="-20%" width="140%" height="140%">
      <feDropShadow dx="2" dy="2" stdDeviation="2" flood-color="#000" flood-opacity="0.3"/>
    </filter>
  </defs>
  
  <!-- Left Half of Laurel Wreath -->
  <g transform="translate(200, 200)">
    <!-- Left Side Leaves -->
    <g filter="url(#shadow)">
      <!-- Bottom Leaves -->
      <path d="M0,150 C-20,145 -50,140 -70,120 C-90,100 -100,70 -95,40 C-90,45 -80,55 -70,60 C-60,65 -40,70 -20,65 C-10,62 0,155 0,150 Z" fill="url(#goldGradient)" opacity="0.9"/>
      
      <!-- Middle-Bottom Leaves -->
      <path d="M0,120 C-30,115 -70,100 -90,70 C-110,40 -115,10 -105,-10 C-95,0 -85,15 -70,25 C-55,35 -30,40 -10,35 C0,32 0,125 0,120 Z" fill="url(#goldGradient)" opacity="0.9"/>
      
      <!-- Middle Leaves -->
      <path d="M0,90 C-40,85 -80,60 -100,30 C-120,0 -120,-30 -110,-50 C-100,-40 -80,-20 -65,-5 C-50,10 -25,20 -5,15 C0,12 0,95 0,90 Z" fill="url(#goldGradient)" opacity="0.9"/>
      
      <!-- Middle-Top Leaves -->
      <path d="M0,60 C-50,55 -90,20 -105,-10 C-120,-40 -115,-70 -100,-85 C-90,-75 -70,-55 -50,-35 C-30,-15 -15,0 0,0 C0,5 0,65 0,60 Z" fill="url(#goldGradient)" opacity="0.9"/>
      
      <!-- Top Leaves -->
      <path d="M0,30 C-40,25 -70,-5 -85,-35 C-100,-65 -95,-90 -80,-105 C-70,-95 -50,-75 -30,-55 C-10,-35 0,-20 0,-15 C0,-10 0,35 0,30 Z" fill="url(#goldGradient)" opacity="0.9"/>
      
      <!-- Very Top Leaves -->
      <path d="M0,0 C-30,-5 -55,-30 -65,-60 C-75,-90 -70,-110 -55,-125 C-45,-115 -30,-95 -15,-75 C0,-55 0,-40 0,-30 C0,-25 0,5 0,0 Z" fill="url(#goldGradient)" opacity="0.9"/>
    </g>
    
    <!-- Highlights on leaves -->
    <g opacity="0.7">
      <path d="M-40,120 C-50,110 -60,90 -65,70" stroke="#FFD700" stroke-width="1.5" fill="none"/>
      <path d="M-60,80 C-70,60 -75,40 -75,20" stroke="#FFD700" stroke-width="1.5" fill="none"/>
      <path d="M-70,40 C-80,20 -85,-10 -80,-30" stroke="#FFD700" stroke-width="1.5" fill="none"/>
      <path d="M-60,0 C-70,-20 -75,-40 -70,-60" stroke="#FFD700" stroke-width="1.5" fill="none"/>
      <path d="M-40,-40 C-50,-60 -55,-80 -45,-95" stroke="#FFD700" stroke-width="1.5" fill="none"/>
    </g>
    
    <!-- Berries/small details -->
    <g>
      <circle cx="-85" cy="90" r="3" fill="#FFD700"/>
      <circle cx="-95" cy="50" r="3" fill="#FFD700"/>
      <circle cx="-100" cy="10" r="3" fill="#FFD700"/>
      <circle cx="-90" cy="-30" r="3" fill="#FFD700"/>
      <circle cx="-75" cy="-70" r="3" fill="#FFD700"/>
      <circle cx="-55" cy="-100" r="3" fill="#FFD700"/>
    </g>
  </g>
</svg>
